PathFileType	4	(X/Y/Z)	/Users/itak/Documents/Research/Walk-IL/dataset/trc/00064_00006.trc
DataRate	CameraRate	NumFrames	NumMarkers	Units	OrigDataRate	OrigDataStartFrame	OrigNumFrames
100.000000	100.000000	4	53	mm	100.000000	0	764
Frame#	Time	RPSI			LPSI			L3			STRN			T10			C7			CLAV			RBAK			LBAK			LSHO			LUPA			LAEL			LAOL			LWTS			LWPS			LFRA			LIFD			LHPS			LHTS			RSHO			RUPA			RAEL			RAOL			RWTS			RWPS			RFRA			RIFD			RHTS			RHPS			RBHD			LFHD			RFHD			LBHD			LHIP			RHIP			RASI			LASI			LKNE			LTHI			LANK			LTIP			LTOE			LMT1			LMT5			LHEE			RKNE			RTHI			RANK			RTIP			RTOE			RMT1			RMT5			RHEE			
		X1	Y1	Z1	X2	Y2	Z2	X3	Y3	Z3	X4	Y4	Z4	X5	Y5	Z5	X6	Y6	Z6	X7	Y7	Z7	X8	Y8	Z8	X9	Y9	Z9	X10	Y10	Z10	X11	Y11	Z11	X12	Y12	Z12	X13	Y13	Z13	X14	Y14	Z14	X15	Y15	Z15	X16	Y16	Z16	X17	Y17	Z17	X18	Y18	Z18	X19	Y19	Z19	X20	Y20	Z20	X21	Y21	Z21	X22	Y22	Z22	X23	Y23	Z23	X24	Y24	Z24	X25	Y25	Z25	X26	Y26	Z26	X27	Y27	Z27	X28	Y28	Z28	X29	Y29	Z29	X30	Y30	Z30	X31	Y31	Z31	X32	Y32	Z32	X33	Y33	Z33	X34	Y34	Z34	X35	Y35	Z35	X36	Y36	Z36	X37	Y37	Z37	X38	Y38	Z38	X39	Y39	Z39	X40	Y40	Z40	X41	Y41	Z41	X42	Y42	Z42	X43	Y43	Z43	X44	Y44	Z44	X45	Y45	Z45	X46	Y46	Z46	X47	Y47	Z47	X48	Y48	Z48	X49	Y49	Z49	X50	Y50	Z50	X51	Y51	Z51	X52	Y52	Z52	X53	Y53	Z53	

1	0	-97.07728576660156	1038.7744140625	1291.953247070312	-113.2088012695312	1035.49853515625	1116.77490234375	-100.1427307128906	1084.726196289062	1197.196044921875	142.4383544921875	1290.6982421875	1196.224609375	-123.4468841552734	1218.747924804688	1192.2119140625	-71.89344024658203	1487.266845703125	1186.509155273438	109.7732238769531	1404.579956054688	1192.409790039062	-129.2091827392578	1347.04736328125	1263.190551757812	-90.80406188964844	1448.5771484375	1085.423217773438	14.26709365844727	1454.349609375	1013.99072265625	3.676060676574707	1324.23486328125	939.4147338867188	33.0395393371582	1107.586059570312	932.5869140625	-33.82509231567383	1095.268676757812	1015.038024902344	129.6158599853516	876.536865234375	1017.011413574219	76.84912872314453	859.501220703125	953.5184326171875	58.77854156494141	999.2461547851562	933.2959594726562	145.804931640625	694.3890991210938	1052.180908203125	111.7695465087891	779.62158203125	966.9240112304688	155.1198883056641	794.9951782226562	1021.775268554688	-9.217155456542969	1454.381225585938	1363.969482421875	-19.85144996643066	1385.565185546875	1427.600708007812	-42.86935424804688	1120.407348632812	1459.428955078125	-23.83213806152344	1098.62646484375	1364.288940429688	109.1405944824219	873.2877807617188	1425.276245117188	37.9549446105957	856.3746948242188	1473.511596679688	-26.8338623046875	1040.548828125	1467.759643554688	110.9081192016602	682.9387817382812	1404.482421875	129.5611877441406	768.2387084960938	1424.608276367188	71.76050567626953	766.9678955078125	1474.655395507812	-32.72663116455078	1670.095336914062	1123.242797851562	126.4009094238281	1702.784423828125	1264.7490234375	140.5694274902344	1708.66650390625	1139.2763671875	-38.65291595458984	1656.637817382812	1260.519287109375	-12.48123264312744	967.3409423828125	1027.160888671875	-31.84095573425293	966.318115234375	1368.49560546875	93.74872589111328	981.241943359375	1346.47314453125	102.7379608154297	974.75048828125	1076.15869140625	23.77075004577637	502.0169982910156	1070.399291992188	1.464202404022217	645.1470947265625	1034.848510742188	-65.73026275634766	52.16495513916016	1056.330688476562	-32.27080535888672	269.4175415039062	1048.768432617188	140.2017059326172	43.89969253540039	1058.7978515625	90.98602294921875	41.98787307739258	1113.368408203125	36.57783126831055	42.91340637207031	1016.046264648438	-118.2012405395508	47.78065490722656	1131.979370117188	20.32904434204102	519.4652709960938	1347.425537109375	45.90127944946289	790.6648559570312	1376.05224609375	-53.63217926025391	42.49965667724609	1340.43017578125	-2.499350786209106	401.6725769042969	1353.648559570312	164.2091827392578	42.48906707763672	1307.50244140625	104.7339096069336	49.93854141235352	1267.624633789062	71.0738525390625	47.00468826293945	1359.5576171875	-98.77247619628906	45.4813117980957	1281.850708007812	
2	0.01	-97.09935760498047	1038.81640625	1291.927734375	-113.2002792358398	1035.51025390625	1116.77490234375	-100.160758972168	1084.753540039062	1197.187255859375	142.4800415039062	1290.700073242188	1196.220336914062	-123.4209976196289	1218.777954101562	1192.196899414062	-71.83913421630859	1487.296142578125	1186.459106445312	109.7980194091797	1404.578491210938	1192.404418945312	-129.1608123779297	1347.0888671875	1263.15966796875	-90.72261047363281	1448.590454101562	1085.366088867188	14.34762763977051	1454.33349609375	1013.964172363281	3.807321071624756	1324.224609375	939.3882446289062	33.21321868896484	1107.569946289062	932.6124267578125	-33.72021865844727	1095.264282226562	1015.003051757812	129.8003540039062	876.5967407226562	1017.232238769531	77.10884857177734	859.5200805664062	953.7067260742188	58.98843765258789	999.234130859375	933.3809204101562	146.1339569091797	694.4949951171875	1052.55615234375	112.1131134033203	779.6504516601562	967.2080078125	155.3417816162109	795.1053466796875	1022.093811035156	-9.200704574584961	1454.414428710938	1363.922607421875	-19.81282424926758	1385.58837890625	1427.589111328125	-42.81916046142578	1120.451904296875	1459.436767578125	-23.80770111083984	1098.651977539062	1364.27978515625	109.1855392456055	873.31884765625	1425.276489257812	37.97605133056641	856.4180297851562	1473.509887695312	-26.77556800842285	1040.586547851562	1467.763916015625	110.9448928833008	682.9539794921875	1404.5244140625	129.6091613769531	768.295166015625	1424.627563476562	71.79994964599609	766.987060546875	1474.670776367188	-32.61690139770508	1670.1103515625	1123.166015625	126.5847778320312	1702.766845703125	1264.67822265625	140.7799377441406	1708.606811523438	1139.24462890625	-38.54182434082031	1656.666259765625	1260.43505859375	-12.42755603790283	967.3394165039062	1027.218627929688	-31.90377998352051	966.3585815429688	1368.524169921875	93.70681762695312	981.261474609375	1346.469970703125	102.7239837646484	974.7498779296875	1076.159301757812	23.80162239074707	502.0286865234375	1070.417846679688	1.490859270095825	645.1484985351562	1034.862426757812	-65.72891998291016	52.16374969482422	1056.333618164062	-32.25354766845703	269.4166564941406	1048.781372070312	140.20361328125	43.90606689453125	1058.797485351562	90.98575592041016	41.98647689819336	1113.365966796875	36.58184432983398	42.90860366821289	1016.055847167969	-118.2058486938477	47.77727127075195	1131.98583984375	20.45561981201172	519.4735107421875	1347.403076171875	45.88706970214844	790.6840209960938	1376.054565429688	-53.62587738037109	42.51296615600586	1340.430541992188	-2.383916854858398	401.6640319824219	1353.634765625	164.2271270751953	42.48469924926758	1307.497314453125	104.7441177368164	49.93112564086914	1267.60888671875	71.08224487304688	47.0041389465332	1359.535522460938	-98.74822998046875	45.46437454223633	1281.858032226562	
3	0.02	-97.13036346435547	1038.865478515625	1291.89453125	-113.1857528686523	1035.52294921875	1116.773803710938	-100.1823577880859	1084.788330078125	1197.1728515625	142.5300903320312	1290.703735351562	1196.21630859375	-123.3944244384766	1218.814453125	1192.173217773438	-71.77248382568359	1487.332763671875	1186.395751953125	109.8281173706055	1404.578247070312	1192.39794921875	-129.1053009033203	1347.14453125	1263.117065429688	-90.62667083740234	1448.606079101562	1085.2958984375	14.44540023803711	1454.317260742188	1013.932678222656	3.968159437179565	1324.214599609375	939.3575439453125	33.42904663085938	1107.556640625	932.6351928710938	-33.58473205566406	1095.258056640625	1014.95166015625	130.04248046875	876.6734008789062	1017.471069335938	77.43743133544922	859.5481567382812	953.9089965820312	59.25564193725586	999.2261352539062	933.46826171875	146.5386199951172	694.6180419921875	1052.960083007812	112.5428771972656	779.691650390625	967.5133666992188	155.635498046875	795.2421264648438	1022.440307617188	-9.183864593505859	1454.456909179688	1363.864990234375	-19.76865196228027	1385.6171875	1427.573486328125	-42.76174926757812	1120.506591796875	1459.445922851562	-23.77751731872559	1098.682373046875	1364.26953125	109.2310256958008	873.3541870117188	1425.277954101562	37.99892425537109	856.4708251953125	1473.511352539062	-26.71054649353027	1040.6318359375	1467.769409179688	110.9691925048828	682.9655151367188	1404.5751953125	129.6572570800781	768.3589477539062	1424.652954101562	71.8443603515625	767.0127563476562	1474.693481445312	-32.4774169921875	1670.12744140625	1123.073608398438	126.8126525878906	1702.746826171875	1264.599975585938	141.0245056152344	1708.53857421875	1139.20361328125	-38.402099609375	1656.703125	1260.334106445312	-12.36319446563721	967.3349609375	1027.279418945312	-31.98116302490234	966.405517578125	1368.553588867188	93.65312194824219	981.2860107421875	1346.466796875	102.7119140625	974.7503662109375	1076.164428710938	23.83858299255371	502.0402221679688	1070.439453125	1.526593565940857	645.1499633789062	1034.88037109375	-65.72836303710938	52.16303253173828	1056.335327148438	-32.23321533203125	269.4151000976562	1048.794067382812	140.2103729248047	43.91640853881836	1058.796997070312	90.98443603515625	41.98669052124023	1113.362548828125	36.58161163330078	42.90678787231445	1016.063293457031	-118.2110366821289	47.77409362792969	1131.9912109375	20.63418197631836	519.4822387695312	1347.372680664062	45.8767204284668	790.7055053710938	1376.058227539062	-53.61684036254883	42.52790451049805	1340.429565429688	-2.230633020401001	401.648681640625	1353.61865234375	164.2461853027344	42.4796142578125	1307.4892578125	104.756965637207	49.92133712768555	1267.58740234375	71.09152984619141	47.00537872314453	1359.508911132812	-98.7218017578125	45.45009613037109	1281.862182617188	
4	0.03	-97.171875	1038.918334960938	1291.852661132812	-113.1633911132812	1035.535034179688	1116.771240234375	-100.204963684082	1084.828247070312	1197.152221679688	142.5852813720703	1290.709350585938	1196.213745117188	-123.3702545166016	1218.855346679688	1192.138916015625	-71.69731903076172	1487.374267578125	1186.321655273438	109.861946105957	1404.5791015625	1192.390502929688	-129.0476531982422	1347.212280273438	1263.062622070312	-90.52254486083984	1448.623046875	1085.215942382812	14.55447006225586	1454.3037109375	1013.898193359375	4.15011739730835	1324.206787109375	939.3250732421875	33.67782592773438	1107.550048828125	932.6487426757812	-33.4226188659668	1095.249267578125	1014.882263183594	130.3381042480469	876.7639770507812	1017.697326660156	77.82177734375	859.5858764648438	954.0989379882812	59.56917953491211	999.2261962890625	933.5440063476562	146.9989166259766	694.7493286132812	1053.341674804688	113.0395431518555	779.7459716796875	967.8007202148438	155.9963684082031	795.3980712890625	1022.772216796875	-9.168752670288086	1454.505981445312	1363.80029296875	-19.7235164642334	1385.649658203125	1427.553955078125	-42.70313262939453	1120.568237304688	1459.455810546875	-23.74435043334961	1098.715576171875	1364.258666992188	109.270393371582	873.390869140625	1425.281982421875	38.01944732666016	856.5301513671875	1473.517333984375	-26.64571380615234	1040.681884765625	1467.776733398438	110.9735870361328	682.9713134765625	1404.632934570312	129.6967010498047	768.4234008789062	1424.684814453125	71.89024353027344	767.0457153320312	1474.725463867188	-32.3133544921875	1670.145629882812	1122.97216796875	127.0729370117188	1702.725219726562	1264.521362304688	141.2835235595703	1708.46728515625	1139.155029296875	-38.23941421508789	1656.74853515625	1260.222534179688	-12.2950611114502	967.3275756835938	1027.334228515625	-32.06875228881836	966.454833984375	1368.579956054688	93.59039306640625	981.3148193359375	1346.464477539062	102.7043151855469	974.752197265625	1076.17529296875	23.88037109375	502.0503540039062	1070.462158203125	1.571034908294678	645.1511840820312	1034.901000976562	-65.72911834716797	52.16333389282227	1056.335205078125	-32.20992660522461	269.4127197265625	1048.805297851562	140.2234497070312	43.93045425415039	1058.7978515625	90.9820556640625	41.98735809326172	1113.359252929688	36.57616806030273	42.90865707397461	1016.067687988281	-118.2162551879883	47.77173233032227	1131.994750976562	20.86490631103516	519.4908447265625	1347.334228515625	45.87457656860352	790.7271728515625	1376.063232421875	-53.60501480102539	42.54366683959961	1340.426391601562	-2.044834852218628	401.6243896484375	1353.600830078125	164.2651824951172	42.47469711303711	1307.477905273438	104.7720260620117	49.90939712524414	1267.560424804688	71.10128021240234	47.00875473022461	1359.479736328125	-98.69779968261719	45.44253921508789	1281.859985351562	
